<?xml version="1.0" encoding="utf-8"?>
<!-- Generator: Adobe Illustrator 16.0.0, SVG Export Plug-In . SVG Version: 6.00 Build 0)  -->
<!DOCTYPE svg PUBLIC "-//W3C//DTD SVG 1.1//EN" "http://www.w3.org/Graphics/SVG/1.1/DTD/svg11.dtd">
<svg version="1.1" id="Layer_1" xmlns="http://www.w3.org/2000/svg" xmlns:xlink="http://www.w3.org/1999/xlink" x="0px" y="0px"
	 width="60px" height="60px" viewBox="0 0 60 60" enable-background="new 0 0 60 60" xml:space="preserve">
<g>
	
		<path fill-rule="evenodd" clip-rule="evenodd" fill="none" stroke="#FFFFFF" stroke-width="2" stroke-linecap="round" stroke-linejoin="round" stroke-miterlimit="10" d="
		M5.272,56.518l-2.858-2.858c-0.781-0.78-0.781-2.048,0-2.828l30.262-30.262l5.687,5.686L8.101,56.518
		C7.319,57.299,6.053,57.299,5.272,56.518z"/>
	<path fill="none" stroke="#FFFFFF" stroke-width="2" stroke-linecap="round" stroke-linejoin="round" stroke-miterlimit="10" d="
		M46.08,13.055l-3.662-3.748c-0.462-0.472-1.113-0.694-1.758-0.6l-4.103,0.6l-1.465-1.5l0.53-1.627
		c0.123-0.381,0.027-0.801-0.25-1.085l-1.745-1.785c-0.405-0.414-1.061-0.414-1.465,0l-5.86,5.997c-0.404,0.414-0.404,1.085,0,1.499
		l1.745,1.785c0.277,0.284,0.688,0.383,1.06,0.256l1.59-0.542l1.465,1.499l-0.733,5.247l8.791,8.995l6.592-3.748
		c4.035,4.129,4.434,6.604,5.266,10.702C52.57,34.754,58.709,25.979,46.08,13.055z"/>
</g>
</svg>
